<svg width="9" height="9" viewBox="0 0 9 9" fill="none" xmlns="http://www.w3.org/2000/svg">
<rect width="9" height="9" fill="#212121"/>
<g id="main" clip-path="url(#clip0_0_1)" filter="url(#filter0_d_0_1)">
<rect width="1440" height="8753" transform="translate(-312 -744)" fill="white"/>
<g id="Group">
<g id="Rectangle 4210" filter="url(#filter1_d_0_1)">
<rect x="-186" y="-82.4453" width="250" height="106" rx="8.00623" fill="#FAFFFA"/>
<rect x="-185.6" y="-82.045" width="249.199" height="105.199" rx="7.60592" stroke="#CEFFCE" stroke-width="0.800623"/>
</g>
<g id="Group 8786">
<g id="Group 8779">
<g id="akar-icons:heart" clip-path="url(#clip1_0_1)">
<path id="Vector" d="M2.51513 1.20312C1.59408 1.20312 0.847168 1.94237 0.847168 2.85441C0.847168 3.59065 1.13906 5.33801 4.0123 7.10439C4.06376 7.1357 4.12285 7.15226 4.1831 7.15226C4.24334 7.15226 4.30243 7.1357 4.3539 7.10439C7.22713 5.33801 7.51903 3.59065 7.51903 2.85441C7.51903 1.94237 6.77211 1.20312 5.85106 1.20312C4.93001 1.20312 4.1831 2.2039 4.1831 2.2039C4.1831 2.2039 3.43618 1.20312 2.51513 1.20312Z" stroke="#32CD32" stroke-width="0.667186" stroke-linecap="round" stroke-linejoin="round"/>
</g>
</g>
</g>
</g>
</g>
<defs>
<filter id="filter0_d_0_1" x="-373.624" y="-805.624" width="1570.5" height="8883.5" filterUnits="userSpaceOnUse" color-interpolation-filters="sRGB">
<feFlood flood-opacity="0" result="BackgroundImageFix"/>
<feColorMatrix in="SourceAlpha" type="matrix" values="0 0 0 0 0 0 0 0 0 0 0 0 0 0 0 0 0 0 127 0" result="hardAlpha"/>
<feMorphology radius="16.3121" operator="dilate" in="SourceAlpha" result="effect1_dropShadow_0_1"/>
<feOffset dx="3.62492" dy="3.62492"/>
<feGaussianBlur stdDeviation="24.4682"/>
<feComposite in2="hardAlpha" operator="out"/>
<feColorMatrix type="matrix" values="0 0 0 0 0.0117647 0 0 0 0 0.176471 0 0 0 0 0.235294 0 0 0 0.08 0"/>
<feBlend mode="normal" in2="BackgroundImageFix" result="effect1_dropShadow_0_1"/>
<feBlend mode="normal" in="SourceGraphic" in2="effect1_dropShadow_0_1" result="shape"/>
</filter>
<filter id="filter1_d_0_1" x="-195.969" y="-92.4138" width="269.937" height="125.937" filterUnits="userSpaceOnUse" color-interpolation-filters="sRGB">
<feFlood flood-opacity="0" result="BackgroundImageFix"/>
<feColorMatrix in="SourceAlpha" type="matrix" values="0 0 0 0 0 0 0 0 0 0 0 0 0 0 0 0 0 0 127 0" result="hardAlpha"/>
<feMorphology radius="3.62492" operator="erode" in="SourceAlpha" result="effect1_dropShadow_0_1"/>
<feOffset/>
<feGaussianBlur stdDeviation="6.79673"/>
<feComposite in2="hardAlpha" operator="out"/>
<feColorMatrix type="matrix" values="0 0 0 0 0.196078 0 0 0 0 0.803922 0 0 0 0 0.196078 0 0 0 0.16 0"/>
<feBlend mode="normal" in2="BackgroundImageFix" result="effect1_dropShadow_0_1"/>
<feBlend mode="normal" in="SourceGraphic" in2="effect1_dropShadow_0_1" result="shape"/>
</filter>
<clipPath id="clip0_0_1">
<rect width="1440" height="8753" fill="white" transform="translate(-312 -744)"/>
</clipPath>
<clipPath id="clip1_0_1">
<rect width="8.00623" height="8.00623" fill="white" transform="translate(0.180176 0.183594)"/>
</clipPath>
</defs>
</svg>
